<?xml version="1.0" encoding="UTF-8"?>
<svg xmlns="http://www.w3.org/2000/svg" width="1240" height="1748" viewBox="0 0 1240 1748">
  <defs>
    <linearGradient id="bgFade" x1="0%" y1="0%" x2="0%" y2="100%">
      <stop offset="0%" stop-color="#ffffff"/>
      <stop offset="62%" stop-color="#f8fbfe"/>
      <stop offset="100%" stop-color="#eef5fb"/>
    </linearGradient>
    <filter id="softShadow" x="-20%" y="-20%" width="140%" height="140%">
      <feDropShadow dx="0" dy="12" stdDeviation="20" flood-color="#6ba9c4" flood-opacity="0.18"/>
    </filter>
  </defs>

  <rect width="1240" height="1748" fill="url(#bgFade)"/>
  <circle cx="1110" cy="250" r="320" fill="#f0f0f0"/>
  <circle cx="1020" cy="1510" r="350" fill="#e7f0f8"/>
  <path d="M260 250 C 760 340, 990 620, 980 1680" fill="none" stroke="#dfeaf4" stroke-width="180" stroke-linecap="round" opacity="0.9"/>
  <path d="M330 270 C 780 360, 980 650, 970 1680" fill="none" stroke="#ffffff" stroke-width="5" opacity="0.9"/>
  <path d="M410 290 C 820 380, 1020 680, 1010 1680" fill="none" stroke="#ffffff" stroke-width="5" opacity="0.9"/>
  <path d="M490 310 C 860 400, 1060 710, 1050 1680" fill="none" stroke="#ffffff" stroke-width="5" opacity="0.9"/>
  <path d="M570 330 C 900 420, 1100 740, 1090 1680" fill="none" stroke="#ffffff" stroke-width="5" opacity="0.9"/>

  <image href="file:///Users/margotlaporte/Desktop/MyCLIM/design/accreditation/assets/world-athletics-silver.png" x="426" y="36" width="388" height="252" preserveAspectRatio="xMidYMid meet"/>
  <text x="620" y="314" text-anchor="middle" font-family="Arial, Helvetica, sans-serif" font-size="24" font-weight="600" letter-spacing="6" fill="#9db0bf">ACCREDITATION OFFICIELLE</text>

  <rect x="120" y="348" width="1000" height="315" rx="54" fill="#ffffff" filter="url(#softShadow)"/>
  <image href="file:///Users/margotlaporte/Desktop/MyCLIM/design/accreditation/assets/meeting-noir.png" x="150" y="388" width="940" height="235" preserveAspectRatio="xMidYMid meet"/>

  <rect x="80" y="730" width="1080" height="350" rx="42" fill="#2f2f2f" filter="url(#softShadow)"/>
  <text x="620" y="835" text-anchor="middle" font-family="Arial, Helvetica, sans-serif" font-size="76" font-weight="800" fill="#ffffff">COMITE DIRECTEUR FLA</text>
  <text x="620" y="923" text-anchor="middle" font-family="Arial, Helvetica, sans-serif" font-size="63" font-weight="700" fill="#ffffff">ESPOSITO</text>
  <text x="620" y="1000" text-anchor="middle" font-family="Arial, Helvetica, sans-serif" font-size="63" font-weight="700" fill="#ffffff">CARMELA</text>

  <text x="620" y="1140" text-anchor="middle" font-family="Arial, Helvetica, sans-serif" font-size="34" font-weight="700" letter-spacing="3" fill="#111111">ACCES AUTORISE</text>
  <rect x="120" y="1165" width="1000" height="190" rx="38" fill="#f4f4f4" stroke="#111111" stroke-width="4"/>
  <text x="620" y="1330" text-anchor="middle" font-family="Arial, Helvetica, sans-serif" font-size="48" font-weight="800" letter-spacing="2" fill="#2f2f2f">AUCUNE ZONE</text>

  
    <rect x="150" y="1210" width="260" height="86" rx="26" fill="#ffffff" stroke="#c7d4de" stroke-width="4"/>
    <text x="280" y="1264" text-anchor="middle" font-family="Arial, Helvetica, sans-serif" font-size="30" font-weight="700" fill="#8194a4">TRIBUNE</text>
    <rect x="470" y="1210" width="260" height="86" rx="26" fill="#ffffff" stroke="#c7d4de" stroke-width="4"/>
    <text x="600" y="1264" text-anchor="middle" font-family="Arial, Helvetica, sans-serif" font-size="30" font-weight="700" fill="#8194a4">MIXED ZONE</text>
    <rect x="790" y="1210" width="260" height="86" rx="26" fill="#ffffff" stroke="#c7d4de" stroke-width="4"/>
    <text x="920" y="1264" text-anchor="middle" font-family="Arial, Helvetica, sans-serif" font-size="30" font-weight="700" fill="#8194a4">INFIELD</text>

  <rect x="0" y="1490" width="1240" height="258" fill="#ffffff" opacity="0.96"/>
  <line x1="90" y1="1510" x2="1150" y2="1510" stroke="#dfe6ee" stroke-width="4"/>
  <text x="620" y="1562" text-anchor="middle" font-family="Arial, Helvetica, sans-serif" font-size="26" font-weight="700" letter-spacing="4" fill="#8ca0b1">PARTENAIRES ET INSTITUTIONS</text>

  <image href="file:///Users/margotlaporte/Desktop/MyCLIM/design/accreditation/assets/coque.png" x="90" y="1588" width="210" height="82" preserveAspectRatio="xMidYMid meet"/>
  <image href="file:///Users/margotlaporte/Desktop/MyCLIM/design/accreditation/assets/european-athletics.svg" x="312" y="1586" width="230" height="86" preserveAspectRatio="xMidYMid meet"/>
  <image href="file:///Users/margotlaporte/Desktop/MyCLIM/design/accreditation/assets/ville-luxembourg.png" x="558" y="1582" width="205" height="94" preserveAspectRatio="xMidYMid meet"/>
  <image href="file:///Users/margotlaporte/Desktop/MyCLIM/design/accreditation/assets/cmcm-partner.png" x="760" y="1558" width="240" height="138" preserveAspectRatio="xMidYMid meet"/>
  <image href="file:///Users/margotlaporte/Desktop/MyCLIM/design/accreditation/assets/luxembourg.png" x="1006" y="1596" width="160" height="64" preserveAspectRatio="xMidYMid meet"/>
</svg>